<?xml version="1.0" encoding="utf-8"?>
<!-- Generator: Adobe Illustrator 16.0.0, SVG Export Plug-In . SVG Version: 6.00 Build 0)  -->
<!DOCTYPE svg PUBLIC "-//W3C//DTD SVG 1.1//EN" "http://www.w3.org/Graphics/SVG/1.1/DTD/svg11.dtd">
<svg version="1.1" id="Layer_1" xmlns="http://www.w3.org/2000/svg" xmlns:xlink="http://www.w3.org/1999/xlink" x="0px" y="0px"
	 width="500px" height="500px" viewBox="0 0 500 500" enable-background="new 0 0 500 500" xml:space="preserve">
<g>
	<path fill-rule="evenodd" clip-rule="evenodd" fill="#AFAFAF" stroke="#AFAFAF" stroke-width="7" d="M251.512,12.717
		c136.057,1.633,239.841,110.114,238.941,240.794c-0.921,133.791-107.878,238.188-239.123,237.95
		C115.208,491.213,11.293,382.688,12.001,251.349C12.731,115.593,121.363,13.635,251.512,12.717z M395.018,404.647
		c59.893-55.282,84.813-147.56,50.14-232.673C411.017,88.166,326.688,35.952,233.084,43.276
		c-87.044,6.81-164.103,68.809-186.077,160.981c-19.02,79.779,12.56,158.368,60.337,199.42
		C183.354,314.155,322.401,317.826,395.018,404.647z M371.084,423.372c-60.25-73.627-178.051-75.458-240.406-0.17
		C200.755,476.361,307.096,473.197,371.084,423.372z"/>
	<path fill-rule="evenodd" clip-rule="evenodd" fill="#AFAFAF" stroke="#AFAFAF" stroke-width="7" d="M253.788,293.499
		c-51.325,1.802-94.363-39.508-96.505-92.625c-2.011-49.875,39.757-94.206,90.606-96.165c52.826-2.035,96.265,38.681,98.412,92.242
		C348.351,248.076,306.602,291.646,253.788,293.499z M252.004,134.26c-36.219-0.141-64.861,28.623-65.003,65.28
		c-0.136,35.184,28.945,64.352,64.244,64.435c36.473,0.088,65.407-28.567,65.492-64.858
		C316.822,163.396,287.881,134.399,252.004,134.26z"/>
</g>
</svg>
